<?xml version="1.0" encoding="UTF-8" standalone="no"?><!DOCTYPE svg PUBLIC "-//W3C//DTD SVG 1.1//EN" "http://www.w3.org/Graphics/SVG/1.1/DTD/svg11.dtd"><svg width="100%" height="100%" viewBox="0 0 521 638" version="1.1" xmlns="http://www.w3.org/2000/svg" xmlns:xlink="http://www.w3.org/1999/xlink" xml:space="preserve" style="fill-rule:evenodd;clip-rule:evenodd;stroke-linejoin:round;stroke-miterlimit:1.41421;"><path d="M260.3,510.79c-68.29,0 -132.14,-26.65 -180.44,-74.95c-47.961,-47.773 -74.95,-112.751 -74.95,-180.445c0,-67.694 26.989,-132.672 74.95,-180.445c48.3,-48.3 112.14,-74.95 180.44,-74.95c68.3,0 132.14,26.65 180.44,75c48.31,48.31 75,112.15 75,180.44c0,68.29 -26.65,132.14 -75,180.45c-48.35,48.31 -112.15,74.9 -180.44,74.9Zm0,-499.69c-0.074,0 -0.148,0 -0.222,0c-134.151,0 -244.54,110.389 -244.54,244.54c0,134.151 110.389,244.54 244.54,244.54c134.151,0 244.54,-110.389 244.54,-244.54c0,-64.828 -25.779,-127.068 -71.618,-172.91c-46.11,-46.64 -107.74,-71.63 -172.7,-71.63l0,0Z" style="fill:#fff;fill-rule:nonzero;"/><path d="M188.13,68.85c1.631,-0.015 3.048,1.164 3.33,2.77l40,154.9l-150.46,-40.52c-1.11,-0.55 -2.22,-1.11 -2.22,-1.66c-0.559,-0.84 -0.559,-1.94 0,-2.78c5.55,-15 19.43,-43.3 45,-69.4c17.953,-17.995 39.245,-32.316 62.68,-42.16c0.56,-1.11 1.11,-1.11 1.67,-1.11m0,-11.11c-2.071,0.15 -4.119,0.522 -6.11,1.11c-24.782,10.484 -47.239,25.779 -66.07,45c-20.733,20.929 -36.982,45.868 -47.75,73.29c-0.663,1.692 -1.003,3.494 -1.003,5.311c0,6.65 4.555,12.495 11.003,14.119l158.8,42.68l1.67,0c3.89,0 7.22,-3.88 6.11,-7.77l-42.2,-163.23c-2.094,-6.197 -7.89,-10.435 -14.43,-10.55l-0.02,0.04Z" style="fill:#fff;fill-rule:nonzero;"/><path d="M68.76,220.42l1.11,0l154.35,42.19l-110.49,110.49c-0.669,0.828 -1.724,1.249 -2.78,1.11c-1.04,0.051 -2.053,-0.355 -2.77,-1.11c-17.571,-21.728 -30.43,-46.875 -37.76,-73.84c-6.68,-24.58 -8.565,-50.218 -5.55,-75.51c0.344,-1.884 1.976,-3.281 3.89,-3.33m0,-11.11c-7.509,0.007 -13.834,5.845 -14.44,13.33c-2.22,17.21 -2.77,46.63 6.11,79.95c7.882,28.37 21.496,54.826 40,77.73c2.761,3.323 6.795,5.338 11.11,5.55c3.88,0 7.22,-1.67 10.55,-4.44l116,-116c1.095,-1.121 1.709,-2.627 1.709,-4.193c0,-2.723 -1.854,-5.121 -4.489,-5.807l-162.67,-44.43c-1.66,-1.11 -2.77,-1.67 -3.88,-1.67l0,-0.02Z" style="fill:#fff;fill-rule:nonzero;"/><path d="M252.53,57.74c17.79,-0.009 35.51,2.229 52.74,6.66c35.54,9.44 61.08,27.76 73.85,37.76c1.11,0.55 1.11,1.66 1.11,2.77c0.052,1.044 -0.353,2.06 -1.11,2.78l-109.93,110.49l-42.19,-154.35c-0.422,-0.949 -0.197,-2.068 0.56,-2.78c0.632,-0.685 1.384,-1.248 2.22,-1.66c7.534,-1.128 15.142,-1.687 22.76,-1.67m0,-11.1c-8.175,-0.098 -16.344,0.457 -24.43,1.66c-7.243,0.99 -12.701,7.244 -12.701,14.555c0,1.271 0.165,2.536 0.491,3.765l44.4,162.68c0.56,2.78 3.33,4.44 6.11,4.44c1.639,0.047 3.234,-0.549 4.44,-1.66l116,-116c2.723,-2.745 4.253,-6.459 4.253,-10.325c0,-4.388 -1.97,-8.552 -5.363,-11.335c-22.904,-18.504 -49.36,-32.118 -77.73,-40c-18.037,-5.246 -36.736,-7.863 -55.52,-7.77l0.05,-0.01Z" style="fill:#fff;fill-rule:nonzero;"/><path d="M287.51,282l154.9,40c0.836,0.412 1.588,0.975 2.22,1.66c0.298,1.093 0.298,2.247 0,3.34c-7.22,16.1 -20,40.53 -42.75,62.73c-19.722,19.699 -43.368,35.032 -69.4,45l-1.11,0c-1.632,0.034 -3.064,-1.126 -3.37,-2.73l-40.49,-150m-7.22,-12.77c-3.89,0 -7.22,3.89 -6.11,7.78l42.75,158.79c1.658,6.259 7.406,10.623 13.88,10.54c1.715,-0.099 3.404,-0.474 5,-1.11c27.423,-10.76 52.364,-27.006 73.29,-47.74c18.915,-19.085 34.168,-41.48 45,-66.07c0.756,-1.804 1.145,-3.741 1.145,-5.697c0,-6.736 -4.614,-12.657 -11.145,-14.303l-163.23,-42.2l-0.58,0.01Z" style="fill:#fff;fill-rule:nonzero;"/><path d="M250.31,289.82l42.2,154.34c0.422,0.949 0.197,2.068 -0.56,2.78c-0.56,0.55 -1.11,1.67 -2.78,1.67c-7.21,1.11 -15,1.11 -22.76,1.11c-17.791,0.005 -35.511,-2.236 -52.74,-6.67c-35.54,-9.44 -61.08,-27.76 -73.85,-37.75c-1.11,-0.56 -1.11,-1.67 -1.11,-2.78c-0.051,-1.04 0.355,-2.053 1.11,-2.77l110.49,-109.93m2.78,-15.55c-1.644,-0.044 -3.241,0.556 -4.45,1.67l-116,116c-2.723,2.745 -4.253,6.459 -4.253,10.325c0,4.388 1.97,8.552 5.363,11.335c37.559,30.761 84.703,47.468 133.25,47.22c9.43,0 17.76,-0.56 24.42,-1.11c8.89,-1.11 15,-10 12.77,-18.32l-44.44,-162.68c-1.67,-2.77 -3.89,-4.44 -6.66,-4.44l0,0Z" style="fill:#fff;fill-rule:nonzero;"/><path d="M408.54,133.8c1.044,-0.052 2.06,0.353 2.78,1.11c34.07,42.055 49.699,96.165 43.3,149.91c0,1.67 -2.22,2.78 -3.33,2.78l-1.11,0l-154.34,-42.2l109.93,-109.93c0.518,-1.048 1.602,-1.701 2.77,-1.67m0,-11.1c-3.88,0 -7.21,1.67 -10.55,4.44l-116,116c-1.096,1.121 -1.711,2.628 -1.711,4.196c0,2.719 1.85,5.115 4.481,5.804l162.68,44.42c1.241,0.451 2.563,0.638 3.88,0.55c7.26,-0.137 13.411,-5.572 14.44,-12.76c3.299,-26.791 1.222,-53.972 -6.11,-79.95c-7.873,-28.374 -21.488,-54.831 -40,-77.73c-2.814,-3.181 -6.863,-5.003 -11.11,-5l0,0.03Z" style="fill:#fff;fill-rule:nonzero;"/><path d="M268.63,149.35c-2.768,-0.026 -5.23,-1.816 -6.11,-4.44l0,-0.56c0,-0.55 -5,-28.87 -7.21,-42.75c-1.67,-12.77 -1.11,-20.54 3.33,-25.54c2.22,-2.77 6.1,-4.44 10,-5c3.935,-0.425 7.848,1.038 10.54,3.94c5.55,5.55 4.44,16.1 3.33,26.1c-1.66,12.21 -7.22,41.64 -7.77,43.3l0,0.56c-0.895,2.607 -3.354,4.374 -6.11,4.39Z" style="fill:#fff;fill-rule:nonzero;"/><path d="M353,405.3c-1.139,0.088 -2.282,-0.104 -3.33,-0.56c-7.22,-2.22 -11.66,-11.66 -15.54,-21.09c-4.45,-11.11 -14.44,-38.31 -15,-39.42l0,-0.56c-0.56,-2.77 0.55,-5.55 2.77,-6.66c2.22,-1.11 5.55,-1.11 7.22,1.11l0.55,0.55c0,0 17.77,22.21 26.1,33.32c7.77,10 10.55,17.21 9.44,23.32c-0.56,3.33 -2.78,6.1 -5.56,8.32c-2.077,1.01 -4.342,1.579 -6.65,1.67Z" style="fill:#fff;fill-rule:nonzero;"/><path d="M380.23,202.65l-2.78,-3.89c-1.66,-2.22 -1.11,-5 0.56,-7.21l0.55,-0.56c0.56,-0.55 15,-13.32 22.21,-19.43c7.21,-6.11 12.23,-8.33 17.23,-7.77c2.78,0.55 5.55,1.66 7.22,4.44c1.78,2.383 2.39,5.447 1.66,8.33c-1.66,5.55 -8.32,9.43 -15,12.76c-7.77,3.89 -26.09,11.66 -26.65,12.22l-0.55,0l-4.45,1.11Z" style="fill:#fff;fill-rule:nonzero;"/><path d="M195.9,420.85c-1.545,-0.037 -3.062,-0.42 -4.44,-1.12c-3.41,-1.124 -6.091,-3.802 -7.22,-7.21c-2.22,-7.22 2.22,-16.1 7.77,-25c6.11,-10.55 31.65,-53.3 31.65,-53.3l0.56,-1.11c1.73,-2.138 4.719,-2.827 7.21,-1.66c2.611,1.066 4.043,3.932 3.33,6.66l0,1.11c0,0.56 -16.1,45.53 -20,58.3c-3.89,12.21 -7.78,18.87 -13.33,21.65c-1.64,1.68 -3.86,1.68 -5.53,1.68Z" style="fill:#fff;fill-rule:nonzero;"/><path d="M315.82,330.9c-2.034,0.013 -3.933,-1.039 -5,-2.77l-2.78,-5.56c-0.408,-0.77 -0.621,-1.629 -0.621,-2.5c0,-2.93 2.411,-5.341 5.341,-5.341c1.975,0 3.795,1.095 4.72,2.841l2.78,5.55c0.521,0.798 0.799,1.731 0.799,2.685c0,1.981 -1.199,3.776 -3.029,4.535c-0.648,0.439 -1.431,0.637 -2.21,0.56Z" style="fill:#fff;fill-rule:nonzero;"/><path d="M348,223.19c-1.67,0 -3.89,-1.11 -4.45,-2.77c-1.66,-2.78 -1.11,-6.11 1.67,-7.78l17.21,-11.1c2.78,-1.67 6.11,-1.11 7.77,1.66c1.66,2.77 1.11,6.11 -1.66,7.78l-17.21,11.1c-0.885,0.852 -2.11,1.261 -3.33,1.11l0,0Z" style="fill:#fff;fill-rule:nonzero;"/><g><text x="0px" y="616.77px" style="font-family:'Montserrat-SemiBold', 'Montserrat';font-weight:600;font-size:78.18px;fill:#fff;">C</text><text x="56.45px" y="616.77px" style="font-family:'Montserrat-SemiBold', 'Montserrat';font-weight:600;font-size:78.18px;fill:#fff;">ap’</text><text x="198.19px" y="616.77px" style="font-family:'Montserrat-SemiBold', 'Montserrat';font-weight:600;font-size:78.18px;fill:#fff;">P</text><text x="253.77px" y="616.77px" style="font-family:'Montserrat-SemiBold', 'Montserrat';font-weight:600;font-size:78.18px;fill:#fff;">as</text><text x="363.07px" y="616.77px" style="font-family:'Montserrat-SemiBold', 'Montserrat';font-weight:600;font-size:78.18px;fill:#fff;">C</text><text x="419.52px" y="616.77px" style="font-family:'Montserrat-SemiBold', 'Montserrat';font-weight:600;font-size:78.18px;fill:#fff;">ap</text></g></svg>