<?xml version="1.0" encoding="utf-8"?>
<!-- Generator: Adobe Illustrator 23.0.1, SVG Export Plug-In . SVG Version: 6.00 Build 0)  -->
<svg version="1.1" id="Calque_1" xmlns="http://www.w3.org/2000/svg" xmlns:xlink="http://www.w3.org/1999/xlink" x="0px" y="0px"
	 viewBox="0 0 686 386" style="enable-background:new 0 0 686 386;" xml:space="preserve">
<style type="text/css">
	.st0{fill:#02CCB3;stroke:#02CCB3;stroke-width:11.5655;stroke-miterlimit:10;}
	.st1{fill:#02CCB3;stroke:#02CCB3;stroke-width:11.5655;stroke-linecap:round;stroke-linejoin:round;stroke-miterlimit:10;}
</style>
<g>
	<g>
		<g>
			<path class="st0" d="M492.5,366.38c46.36,0,89.87-18.05,122.66-50.84c33.45-33.45,50.84-77.91,50.84-122.8
				c0-27.95-6.75-56.12-20.61-81.87c16.65-23.11,20.25-45.7,20.25-61.04c0-5.72-0.51-10.42-1.03-13.72
				c-1.1-7.04-6.6-12.47-13.64-13.57c-7.04-1.1-13.87,2.49-17.02,8.88c-6.53,13.28-19.59,22.23-30.81,27.8
				C534.69,2.37,433.23,6.77,369.85,70.15c-32.79,32.79-50.84,76.29-50.84,122.66s18.05,89.87,50.84,122.66
				S446.14,366.38,492.5,366.38z M383.86,301.38c-59.94-59.86-59.94-157.36,0-217.29c57.37-57.37,149.8-60.16,210.47-6.46
				c1.61,1.39,3.59,2.2,5.58,2.42c2.05,0.51,4.25,0.37,6.38-0.51c12.54-5.5,28.68-14.89,39.54-29.78v0.07
				c0,12.91-3.23,32.43-18.63,52.31c-0.22,0.22-0.44,0.51-0.59,0.81c-3.15,3.15-3.89,8.07-1.54,12.03
				c35.43,60.3,25.6,136.96-23.92,186.48C541.21,361.39,443.79,361.39,383.86,301.38z"/>
		</g>
	</g>
	<g>
		<path class="st1" d="M118.86,325.46c-3.96-2.35-8.88-1.61-12.03,1.54c-0.29,0.15-0.59,0.37-0.81,0.59
			c-19.88,15.41-39.39,18.63-52.31,18.63h-0.07c14.89-10.86,24.28-27,29.78-39.54c0.88-2.13,1.03-4.33,0.51-6.38
			c-0.22-1.98-1.03-3.96-2.42-5.58c-53.7-60.67-50.91-153.1,6.46-210.47c57.8-57.8,150.44-59.69,210.67-5.99
			c3.86-5.42,8-10.59,12.39-15.57c-31.68-27.9-71.74-43.29-114.34-43.29c-46.36,0-89.87,18.05-122.66,50.84
			C10.65,133.62,6.25,235.08,63.1,303.52c-5.58,11.22-14.53,24.28-27.8,30.81c-6.38,3.15-9.98,9.98-8.88,17.02
			c1.1,7.04,6.53,12.54,13.57,13.65c3.3,0.51,8,1.03,13.72,1.03c15.33,0,37.93-3.59,61.04-20.25
			c25.75,13.87,53.92,20.61,81.87,20.61c43.11,0,85.71-16.2,118.66-47.09c-4.53-4.81-8.79-9.86-12.81-15.12
			C252.9,351.31,178.03,360.23,118.86,325.46z"/>
	</g>
</g>
</svg>
