<svg id="Layer_1" data-name="Layer 1" xmlns="http://www.w3.org/2000/svg" viewBox="0 0 559.4 559.4"><defs><style>.cls-1{fill:#fd5c63;}</style></defs><title>LOGORESPONSIVE</title><path class="cls-1" d="M482.7,785.4c-74.79,0-144.71-29.19-197.61-82.09a278.89,278.89,0,0,1,0-395.22C338,255.19,407.91,226,482.7,226s144.71,29.19,197.61,82.09h0C733.21,361,762.4,430.91,762.4,505.7s-29.19,144.71-82.09,197.61S557.49,785.4,482.7,785.4Zm0-547.24c-71.75,0-138.63,28-189.1,78.44S215.16,434,215.16,505.7s28,138.63,78.44,189.1A267.43,267.43,0,1,0,671.8,316.6h0C621.33,265.52,553.84,238.16,482.7,238.16Z" transform="translate(-203 -226)"/><path class="cls-1" d="M403.65,301.4a3.68,3.68,0,0,1,3.65,3l43.78,169.64L286.3,429.69c-1.21-.6-2.43-1.21-2.43-1.82-.61-.61-.61-1.82,0-3,6.08-16.42,21.28-47.43,49.25-76a214.1,214.1,0,0,1,68.71-46.21c.61-1.21,1.22-1.21,1.82-1.21m0-12.16a31.16,31.16,0,0,0-6.68,1.21,222.94,222.94,0,0,0-72.36,49.25A237,237,0,0,0,272.32,420a15.94,15.94,0,0,0,10.94,21.28l173.9,46.82H459c4.25,0,7.9-4.26,6.68-8.52L419.46,300.79a17,17,0,0,0-15.81-11.55Z" transform="translate(-203 -226)"/><path class="cls-1" d="M272.92,467.39h1.22l169,46.21-121,121a3.36,3.36,0,0,1-3,1.21,3.93,3.93,0,0,1-3-1.21,220.71,220.71,0,0,1-41.35-80.87,217.15,217.15,0,0,1-6.08-82.7,4.44,4.44,0,0,1,4.25-3.65m0-12.16a15.86,15.86,0,0,0-15.8,14.6c-2.44,18.84-3,51.07,6.68,87.55a235.9,235.9,0,0,0,43.78,85.13c3,3.65,7.91,6.08,12.16,6.08s7.91-1.82,11.56-4.86L458.38,516.64a6.52,6.52,0,0,0-3-10.94L277.18,457.06c-1.82-1.22-3-1.83-4.26-1.83Z" transform="translate(-203 -226)"/><path class="cls-1" d="M474.19,289.24A231.63,231.63,0,0,1,532,296.53c38.92,10.34,66.89,30.41,80.87,41.35,1.22.61,1.22,1.82,1.22,3a3.92,3.92,0,0,1-1.22,3L492.43,465l-46.21-169a2.67,2.67,0,0,1,.61-3,8.39,8.39,0,0,1,2.43-1.82,165.24,165.24,0,0,1,24.93-1.82m0-12.16a167.59,167.59,0,0,0-26.76,1.82A16.08,16.08,0,0,0,434.06,299L482.7,477.12c.61,3,3.65,4.87,6.69,4.87a6.88,6.88,0,0,0,4.86-1.83L621.33,353.08a16.05,16.05,0,0,0-1.21-23.71A235.74,235.74,0,0,0,535,285.59a214,214,0,0,0-60.8-8.51Z" transform="translate(-203 -226)"/><path class="cls-1" d="M512.49,534.89l169.65,43.78a8.31,8.31,0,0,1,2.43,1.82,7,7,0,0,1,0,3.65c-7.9,17.63-21.89,44.38-46.82,68.71a217.83,217.83,0,0,1-76,49.25h-1.22a3.68,3.68,0,0,1-3.65-3L512.49,534.89m-7.9-14c-4.26,0-7.9,4.26-6.69,8.51l46.82,173.9a15.52,15.52,0,0,0,15.2,11.56,17.63,17.63,0,0,0,5.47-1.22,237.16,237.16,0,0,0,80.27-52.29C672.41,634.61,687,606.64,694.91,589A16.15,16.15,0,0,0,684,567.11L505.2,520.9Z" transform="translate(-203 -226)"/><path class="cls-1" d="M471.76,543.4l46.21,169a2.7,2.7,0,0,1-.61,3.05c-.61.6-1.22,1.82-3,1.82-7.91,1.22-16.42,1.22-24.93,1.22a231.66,231.66,0,0,1-57.77-7.3c-38.91-10.34-66.88-30.4-80.87-41.35-1.21-.61-1.21-1.82-1.21-3a3.94,3.94,0,0,1,1.21-3l121-120.39m3-17a6.9,6.9,0,0,0-4.87,1.83L342.85,655.28A16,16,0,0,0,344.07,679,228.44,228.44,0,0,0,490,730.68c10.33,0,19.45-.61,26.75-1.22,9.73-1.22,16.42-10.94,14-20.07L482.09,531.24c-1.82-3-4.25-4.87-7.29-4.87Z" transform="translate(-203 -226)"/><path class="cls-1" d="M645.05,372.54a3.94,3.94,0,0,1,3,1.21,219.64,219.64,0,0,1,47.43,164.18c0,1.82-2.44,3-3.65,3h-1.22l-169-46.21L642,374.36a3.3,3.3,0,0,1,3-1.82m0-12.16c-4.26,0-7.91,1.82-11.56,4.86L506.41,492.32a6.53,6.53,0,0,0,3,10.95l178.16,48.64a10.33,10.33,0,0,0,4.26.61,16.29,16.29,0,0,0,15.81-14A222.41,222.41,0,0,0,701,451a235.9,235.9,0,0,0-43.78-85.13,16.2,16.2,0,0,0-12.16-5.47Z" transform="translate(-203 -226)"/><path class="cls-1" d="M491.82,389.56h0a7.12,7.12,0,0,1-6.69-4.86v-.61c0-.61-5.47-31.62-7.9-46.82-1.83-14-1.22-22.5,3.65-28,2.43-3,6.68-4.86,10.94-5.47a13.68,13.68,0,0,1,11.55,4.26c6.08,6.08,4.87,17.63,3.65,28.57h0c-1.82,13.38-7.9,45.61-8.51,47.43v.61A7.12,7.12,0,0,1,491.82,389.56Z" transform="translate(-203 -226)"/><path class="cls-1" d="M584.24,669.87a7.72,7.72,0,0,1-3.65-.61c-7.9-2.43-12.76-12.77-17-23.1h0c-4.86-12.16-15.81-42-16.42-43.17v-.61c-.61-3,.61-6.08,3-7.3s6.08-1.21,7.91,1.22l.61.61s19.45,24.32,28.57,36.48c8.52,10.94,11.56,18.85,10.34,25.54-.61,3.65-3,6.69-6.08,9.12A18.39,18.39,0,0,1,584.24,669.87Z" transform="translate(-203 -226)"/><path class="cls-1" d="M614,447.94l-3-4.26c-1.83-2.43-1.22-5.47.61-7.91l.6-.6c.61-.61,16.42-14.6,24.32-21.28s13.38-9.13,18.85-8.52c3,.61,6.08,1.83,7.91,4.87a10.83,10.83,0,0,1,1.82,9.12c-1.82,6.08-9.12,10.33-16.41,14h0c-8.52,4.26-28.58,12.77-29.19,13.38h-.61Z" transform="translate(-203 -226)"/><path class="cls-1" d="M412.17,686.9a11.44,11.44,0,0,1-4.87-1.22c-4.86-1.82-7.29-5.47-7.9-7.9-2.43-7.91,2.43-17.64,8.51-27.37C414.6,638.86,442.57,592,442.57,592l.61-1.21a6.63,6.63,0,0,1,7.9-1.83,6.21,6.21,0,0,1,3.65,7.3v1.21c0,.61-17.63,49.86-21.89,63.85-4.26,13.38-8.51,20.67-14.59,23.71C416.42,686.9,414,686.9,412.17,686.9Z" transform="translate(-203 -226)"/><path class="cls-1" d="M543.5,588.39a6.38,6.38,0,0,1-5.47-3l-3-6.08a5.85,5.85,0,0,1,10.34-5.47l3,6.08a5.38,5.38,0,0,1-2.43,7.91A3.72,3.72,0,0,1,543.5,588.39Z" transform="translate(-203 -226)"/><path class="cls-1" d="M578.77,470.43c-1.82,0-4.26-1.21-4.86-3-1.83-3-1.22-6.69,1.82-8.51l18.85-12.16c3-1.82,6.69-1.22,8.51,1.82s1.22,6.69-1.82,8.52l-18.85,12.16A4.49,4.49,0,0,1,578.77,470.43Z" transform="translate(-203 -226)"/></svg>