<?xml version="1.0" encoding="utf-8"?>
<!-- Generator: Adobe Illustrator 23.0.1, SVG Export Plug-In . SVG Version: 6.00 Build 0)  -->
<svg version="1.1" id="Calque_1" xmlns="http://www.w3.org/2000/svg" xmlns:xlink="http://www.w3.org/1999/xlink" x="0px" y="0px"
	 viewBox="0 0 1178 386" style="enable-background:new 0 0 1178 386;" xml:space="preserve">
<style type="text/css">
	.st0{stroke:#000000;stroke-width:3.2293;stroke-miterlimit:10;}
	.st1{fill:#02CCB3;stroke:#02CCB3;stroke-width:4.3057;stroke-miterlimit:10;}
	.st2{fill:#02CCB3;stroke:#02CCB3;stroke-width:4.3057;stroke-linecap:round;stroke-linejoin:round;stroke-miterlimit:10;}
	.st3{stroke:#000000;stroke-width:14.837;stroke-miterlimit:10;}
</style>
<g>
	<g>
		<g>
			<path class="st0" d="M327.79,248.42c6.81,0,13.25,1.29,19.32,3.86c6.07,2.58,11.36,6.12,15.87,10.63
				c4.51,4.51,8.05,9.8,10.63,15.88c2.58,6.07,3.87,12.51,3.87,19.32v71.23c0,1.47-0.46,2.62-1.38,3.45
				c-0.92,0.83-2.03,1.24-3.31,1.24c-1.29,0-2.39-0.41-3.31-1.24c-0.92-0.83-1.38-1.98-1.38-3.45v-71.23
				c0-5.52-1.06-10.72-3.17-15.6c-2.12-4.87-4.97-9.15-8.56-12.83c-3.59-3.68-7.87-6.58-12.83-8.7c-4.97-2.11-10.22-3.17-15.74-3.17
				c-5.52,0-10.72,1.06-15.6,3.17c-4.88,2.12-9.16,5.02-12.84,8.7c-3.68,3.68-6.58,7.96-8.7,12.83c-2.12,4.88-3.17,10.08-3.17,15.6
				v71.23c0,3.13-1.57,4.69-4.69,4.69c-2.95,0-4.42-1.56-4.42-4.69v-116.5c0-1.29,0.41-2.39,1.24-3.32
				c0.83-0.92,1.88-1.37,3.17-1.37c1.47,0,2.62,0.46,3.45,1.37c0.83,0.93,1.24,2.03,1.24,3.32v16.29
				c4.6-6.25,10.39-11.27,17.39-15.05C311.88,250.31,319.51,248.42,327.79,248.42z"/>
			<path class="st0" d="M454.23,248.42c6.81,0,13.25,1.29,19.32,3.86c6.07,2.58,11.36,6.12,15.87,10.63
				c4.51,4.51,8.05,9.8,10.63,15.88c2.58,6.07,3.87,12.51,3.87,19.32v71.23c0,1.47-0.46,2.62-1.38,3.45
				c-0.92,0.83-2.03,1.24-3.31,1.24c-1.29,0-2.39-0.41-3.31-1.24c-0.92-0.83-1.38-1.98-1.38-3.45v-71.23
				c0-5.52-1.06-10.72-3.17-15.6c-2.12-4.87-4.97-9.15-8.56-12.83c-3.59-3.68-7.87-6.58-12.83-8.7c-4.97-2.11-10.22-3.17-15.74-3.17
				c-5.52,0-10.72,1.06-15.6,3.17c-4.88,2.12-9.16,5.02-12.84,8.7c-3.68,3.68-6.58,7.96-8.7,12.83c-2.12,4.88-3.17,10.08-3.17,15.6
				v71.23c0,3.13-1.57,4.69-4.69,4.69c-2.95,0-4.42-1.56-4.42-4.69v-116.5c0-1.29,0.41-2.39,1.24-3.32
				c0.83-0.92,1.88-1.37,3.17-1.37c1.47,0,2.62,0.46,3.45,1.37c0.83,0.93,1.24,2.03,1.24,3.32v16.29
				c4.6-6.25,10.39-11.27,17.39-15.05C438.31,250.31,445.95,248.42,454.23,248.42z"/>
			<path class="st0" d="M589.22,375.96c-8.65,0-16.7-1.61-24.16-4.83c-7.45-3.22-14.04-7.68-19.74-13.39
				c-5.71-5.7-10.17-12.28-13.39-19.74c-3.22-7.45-4.83-15.5-4.83-24.16c0-8.47,1.61-16.47,4.83-24.02
				c3.22-7.54,7.68-14.17,13.39-19.88c5.7-5.7,12.28-10.17,19.74-13.39c7.45-3.22,15.5-4.83,24.16-4.83c7.18,0,14.08,1.2,20.7,3.59
				c6.63,2.39,12.6,5.71,17.94,9.93c5.34,4.24,9.89,9.3,13.66,15.19c3.77,5.89,6.49,12.42,8.14,19.6v0.83
				c0,1.48-0.41,2.67-1.24,3.59c-0.83,0.92-1.89,1.38-3.17,1.38H536.77c-0.18,1.29-0.32,2.58-0.41,3.86
				c-0.09,1.29-0.14,2.67-0.14,4.14c0,7.36,1.38,14.27,4.14,20.7c2.76,6.44,6.53,12.06,11.32,16.84
				c4.78,4.79,10.39,8.55,16.84,11.32c6.44,2.76,13.34,4.14,20.7,4.14c9.01,0,17.43-2.11,25.26-6.34
				c7.82-4.23,14.12-10.12,18.91-17.67c0.73-1.11,1.75-1.8,3.04-2.08c1.29-0.27,2.39-0.04,3.31,0.69c2.57,1.66,3.04,3.77,1.38,6.35
				c-5.89,8.83-13.39,15.73-22.5,20.7C609.51,373.48,599.71,375.96,589.22,375.96z M538.98,296.73h100.21
				c-3.68-10.67-10.03-19.32-19.05-25.95c-9.02-6.63-19.32-9.94-30.92-9.94c-5.89,0-11.46,0.92-16.7,2.76
				c-5.24,1.84-10.08,4.33-14.49,7.45c-4.42,3.13-8.24,6.9-11.46,11.32C543.34,286.79,540.81,291.58,538.98,296.73z"/>
			<path class="st0" d="M728.9,374.58c-8.47,0-16.42-1.61-23.88-4.83c-7.45-3.22-13.99-7.64-19.6-13.25
				c-5.62-5.61-10.03-12.14-13.25-19.6c-3.22-7.45-4.83-15.41-4.83-23.88c0-8.47,1.61-16.43,4.83-23.88
				c3.22-7.46,7.63-13.99,13.25-19.6c5.61-5.61,12.15-10.03,19.6-13.25c7.45-3.22,15.41-4.83,23.88-4.83
				c9.01,0,17.53,1.8,25.54,5.39c8.01,3.59,14.95,8.79,20.84,15.6c0.92,0.93,1.33,1.98,1.24,3.17c-0.09,1.2-0.59,2.26-1.51,3.18
				c-0.92,0.92-2.03,1.33-3.31,1.24c-1.29-0.09-2.4-0.59-3.32-1.52c-4.97-5.89-10.86-10.4-17.67-13.52
				c-6.81-3.13-14.08-4.7-21.81-4.7c-7.18,0-13.99,1.38-20.43,4.14c-6.45,2.76-12.01,6.54-16.7,11.32
				c-4.69,4.79-8.42,10.4-11.18,16.84c-2.76,6.44-4.14,13.25-4.14,20.43c0,7.18,1.38,13.99,4.14,20.43
				c2.76,6.44,6.49,12.01,11.18,16.71c4.69,4.69,10.26,8.42,16.7,11.18c6.44,2.76,13.25,4.14,20.43,4.14c7.73,0,15-1.56,21.81-4.7
				c6.81-3.13,12.79-7.54,17.95-13.25c0.73-0.92,1.74-1.42,3.04-1.52c1.29-0.09,2.39,0.32,3.31,1.24c0.92,0.93,1.42,1.98,1.51,3.18
				c0.09,1.2-0.32,2.26-1.24,3.18c-5.89,6.62-12.83,11.78-20.84,15.46C746.43,372.74,737.91,374.58,728.9,374.58z"/>
			<path class="st0" d="M860.3,348.63c2.57,1.29,3.4,3.41,2.48,6.34c-2.58,5.89-6.58,10.63-12.01,14.22
				c-5.43,3.59-11.37,5.38-17.81,5.38c-4.41,0-8.6-0.88-12.56-2.62c-3.96-1.75-7.41-4.05-10.35-6.9c-2.94-2.86-5.24-6.25-6.9-10.22
				c-1.66-3.95-2.48-8.14-2.48-12.56v-0.55v-0.56V256.7h-6.35c-1.29,0-2.39-0.41-3.31-1.24c-0.93-0.83-1.38-1.98-1.38-3.45
				c0-1.29,0.46-2.39,1.38-3.32c0.92-0.92,2.02-1.38,3.31-1.38h6.35v-68.18c0-1.29,0.46-2.39,1.38-3.32
				c0.92-0.92,2.02-1.38,3.31-1.38c1.29,0,2.39,0.46,3.32,1.38c0.92,0.93,1.38,2.03,1.38,3.32v68.18h25.67
				c1.29,0,2.39,0.46,3.31,1.38c0.92,0.93,1.38,2.03,1.38,3.32c0,1.47-0.46,2.62-1.38,3.45s-2.03,1.24-3.31,1.24h-25.67v84.47v0.56
				v0.55c0,6.44,2.21,11.87,6.63,16.29c4.42,4.41,9.84,6.62,16.28,6.62c4.79,0,9.07-1.29,12.84-3.86c3.77-2.58,6.58-5.98,8.42-10.22
				c0.36-1.1,1.15-1.88,2.35-2.35C857.77,348.31,859.01,348.26,860.3,348.63z"/>
			<path class="st0" d="M897.57,231.31c0,1.47-0.51,2.67-1.52,3.59c-1.01,0.93-2.17,1.38-3.45,1.38c-1.48,0-2.72-0.46-3.72-1.38
				c-1.02-0.92-1.52-2.11-1.52-3.59c0-1.29,0.5-2.44,1.52-3.45c1.01-1.01,2.25-1.52,3.72-1.52c1.29,0,2.44,0.51,3.45,1.52
				C897.06,228.87,897.57,230.02,897.57,231.31z M892.6,374.85c-1.48,0-2.62-0.46-3.45-1.38c-0.83-0.92-1.24-2.02-1.24-3.31V251.46
				c0-3.13,1.56-4.69,4.7-4.69c2.94,0,4.42,1.56,4.42,4.69v118.71c0,1.29-0.41,2.39-1.24,3.31
				C894.95,374.4,893.88,374.85,892.6,374.85z"/>
			<path class="st0" d="M981.77,374.03c-8.65,0-16.8-1.61-24.43-4.83c-7.64-3.22-14.31-7.68-20.01-13.39
				c-5.71-5.7-10.21-12.37-13.52-20.02c-3.32-7.63-4.97-15.78-4.97-24.43c0-8.65,1.65-16.79,4.97-24.43
				c3.31-7.64,7.82-14.26,13.52-19.88c5.71-5.61,12.37-10.07,20.01-13.39c7.64-3.31,15.78-4.97,24.43-4.97
				c8.64,0,16.8,1.66,24.43,4.97c7.63,3.32,14.26,7.78,19.88,13.39c5.61,5.62,10.07,12.24,13.38,19.88
				c3.32,7.64,4.97,15.78,4.97,24.43c0,8.65-1.65,16.8-4.97,24.43c-3.31,7.64-7.77,14.32-13.38,20.02
				c-5.62,5.71-12.25,10.17-19.88,13.39C998.56,372.41,990.41,374.03,981.77,374.03z M981.77,258.09c-7.36,0-14.32,1.42-20.84,4.28
				c-6.54,2.85-12.19,6.67-16.98,11.46c-4.78,4.79-8.6,10.4-11.45,16.84c-2.85,6.45-4.28,13.35-4.28,20.7
				c0,7.36,1.43,14.31,4.28,20.84s6.67,12.19,11.45,16.98c4.79,4.79,10.44,8.61,16.98,11.46c6.52,2.86,13.48,4.28,20.84,4.28
				c7.36,0,14.26-1.42,20.7-4.28c6.44-2.85,12.05-6.67,16.84-11.46c4.78-4.78,8.6-10.44,11.46-16.98
				c2.85-6.53,4.28-13.48,4.28-20.84c0-7.36-1.43-14.26-4.28-20.7c-2.86-6.44-6.68-12.05-11.46-16.84
				c-4.79-4.79-10.4-8.6-16.84-11.46C996.03,259.51,989.13,258.09,981.77,258.09z"/>
			<path class="st0" d="M1117.31,248.42c6.81,0,13.25,1.29,19.32,3.86c6.07,2.58,11.36,6.12,15.87,10.63
				c4.51,4.51,8.05,9.8,10.63,15.88c2.57,6.07,3.86,12.51,3.86,19.32v71.23c0,1.47-0.46,2.62-1.38,3.45
				c-0.92,0.83-2.03,1.24-3.31,1.24c-1.29,0-2.39-0.41-3.31-1.24c-0.93-0.83-1.38-1.98-1.38-3.45v-71.23
				c0-5.52-1.06-10.72-3.17-15.6c-2.12-4.87-4.97-9.15-8.56-12.83c-3.59-3.68-7.87-6.58-12.84-8.7c-4.97-2.11-10.21-3.17-15.73-3.17
				c-5.52,0-10.72,1.06-15.6,3.17c-4.88,2.12-9.16,5.02-12.84,8.7c-3.68,3.68-6.58,7.96-8.69,12.83c-2.12,4.88-3.18,10.08-3.18,15.6
				v71.23c0,3.13-1.57,4.69-4.7,4.69c-2.94,0-4.42-1.56-4.42-4.69v-116.5c0-1.29,0.42-2.39,1.24-3.32c0.83-0.92,1.88-1.37,3.17-1.37
				c1.47,0,2.62,0.46,3.45,1.37c0.83,0.93,1.24,2.03,1.24,3.32v16.29c4.6-6.25,10.4-11.27,17.39-15.05
				C1101.39,250.31,1109.03,248.42,1117.31,248.42z"/>
		</g>
		<g>
			<g>
				<path class="st1" d="M186.35,375.96c17.26,0,33.46-6.72,45.66-18.93c12.45-12.45,18.93-29,18.93-45.72
					c0-10.41-2.51-20.89-7.67-30.48c6.2-8.6,7.54-17.01,7.54-22.72c0-2.13-0.19-3.88-0.38-5.11c-0.41-2.62-2.46-4.64-5.08-5.05
					c-2.62-0.41-5.16,0.93-6.34,3.3c-2.43,4.94-7.29,8.28-11.47,10.35c-25.48-21.17-63.25-19.53-86.85,4.07
					c-12.21,12.21-18.93,28.4-18.93,45.66c0,17.26,6.72,33.46,18.93,45.66C152.9,369.21,169.09,375.96,186.35,375.96z
					 M145.91,351.76c-22.31-22.29-22.31-58.58,0-80.89c21.36-21.36,55.77-22.39,78.35-2.4c0.6,0.52,1.34,0.82,2.08,0.9
					c0.76,0.19,1.58,0.14,2.38-0.19c4.67-2.05,10.68-5.54,14.72-11.09v0.03c0,4.81-1.2,12.07-6.94,19.47
					c-0.08,0.08-0.16,0.19-0.22,0.3c-1.17,1.17-1.45,3-0.57,4.48c13.19,22.45,9.53,50.99-8.9,69.42
					C204.49,374.1,168.22,374.1,145.91,351.76z"/>
			</g>
		</g>
		<g>
			<path class="st2" d="M47.25,360.73c-1.47-0.87-3.3-0.6-4.48,0.57c-0.11,0.05-0.22,0.14-0.3,0.22c-7.4,5.74-14.67,6.94-19.47,6.94
				h-0.03c5.54-4.04,9.04-10.05,11.09-14.72c0.33-0.79,0.38-1.61,0.19-2.38c-0.08-0.74-0.38-1.47-0.9-2.08
				c-19.99-22.59-18.95-57,2.4-78.35c21.52-21.52,56.01-22.22,78.43-2.23c1.44-2.02,2.98-3.94,4.61-5.8
				c-11.79-10.39-26.71-16.12-42.57-16.12c-17.26,0-33.46,6.72-45.66,18.93c-23.6,23.6-25.24,61.37-4.07,86.85
				c-2.08,4.18-5.41,9.04-10.35,11.47c-2.38,1.17-3.71,3.71-3.3,6.34c0.41,2.62,2.43,4.67,5.05,5.08c1.23,0.19,2.98,0.38,5.11,0.38
				c5.71,0,14.12-1.34,22.72-7.54c9.59,5.16,20.07,7.67,30.48,7.67c16.05,0,31.91-6.03,44.18-17.53c-1.69-1.79-3.27-3.67-4.77-5.63
				C97.15,370.35,69.28,373.67,47.25,360.73z"/>
		</g>
	</g>
	<g>
		<g>
			<path d="M96,154.76c0,7.03-5.09,36.35-40.47,36.35c-16.96,0-36.83-7.51-43.38-24.47c-0.49-0.97-0.49-2.18-0.49-3.39
				c0-6.06,5.57-11.87,12.36-11.87c3.39,0,7.03,1.7,9.21,4.6c5.57,7.76,11.39,10.91,21.81,11.39c15.51,0,16.72-10.66,16.96-12.6
				c0-8.24-8.48-11.63-20.11-12.84c-14.78-1.7-40.22-9.69-40.22-36.35c0-23.26,19.63-37.08,40.95-37.08c8,0,15.99,1.94,23.26,5.57
				C78.31,75.28,96,83.27,96,98.06c-0.49,6.06-5.82,11.63-12.36,11.63c-5.82,0-8.24-3.88-11.14-8.24
				c-3.39-6.78-13.57-8.97-20.35-8.97c-8.97,0-16.72,5.09-16.72,13.33c0,17.45,26.17,6.06,46.28,21.57
				C90.43,134.4,96,144.82,96,154.76z"/>
			<path d="M218.37,122.53v56.22c0,6.78-5.57,12.12-12.12,12.12c-6.54,0-11.87-5.33-11.87-12.12v-56.22
				c0-16.24-13.33-29.32-29.56-29.32s-29.32,13.09-29.32,29.32v56.22c0,6.78-5.33,12.12-12.12,12.12c-6.54,0-11.87-5.33-11.87-12.12
				V21c0-6.54,5.33-11.87,11.87-11.87c6.79,0,12.12,5.33,12.12,11.87v56.95c8.48-5.57,18.42-8.72,29.32-8.72
				C194.38,69.22,218.37,93.21,218.37,122.53z"/>
			<path d="M353.84,131.01v47.49c0,7.03-5.09,12.12-12.12,12.12c-4.85,0-11.63-5.09-11.63-12.12
				c-10.42,8.72-22.05,12.12-35.86,12.12c-34.17,0-61.31-25.44-61.31-59.61c0-34.17,27.14-61.31,61.31-61.31
				C328.39,69.7,353.84,96.85,353.84,131.01z M330.09,131.01c0-20.35-15.51-37.56-35.86-37.56c-20.35,0-37.56,17.2-37.56,37.56
				s17.21,35.86,37.56,35.86C314.58,166.87,330.09,151.37,330.09,131.01z"/>
		</g>
		<g>
			<path class="st3" d="M430.97,75.65c1.13,0,2.1,0.36,2.91,1.09c0.81,0.73,1.21,1.74,1.21,3.03c0,1.13-0.41,2.1-1.21,2.91
				c-0.81,0.81-1.78,1.21-2.91,1.21c-8.24,0-15.83,1.9-22.78,5.7c-6.95,3.8-12.6,9.17-16.96,16.11v75.12c0,2.75-1.37,4.12-4.12,4.12
				c-2.59,0-3.88-1.37-3.88-4.12V78.56c0-1.13,0.36-2.1,1.09-2.91c0.73-0.81,1.65-1.21,2.79-1.21c1.29,0,2.3,0.4,3.03,1.21
				c0.73,0.81,1.09,1.78,1.09,2.91v13.81c5.17-5.33,11.15-9.45,17.93-12.36C415.94,77.11,423.21,75.65,430.97,75.65z"/>
			<path class="st3" d="M501,186.16c-7.6,0-14.66-1.42-21.2-4.24c-6.54-2.83-12.32-6.74-17.33-11.75
				c-5.01-5.01-8.93-10.78-11.75-17.33c-2.83-6.54-4.24-13.61-4.24-21.2c0-7.43,1.41-14.46,4.24-21.08
				c2.83-6.62,6.74-12.44,11.75-17.45c5.01-5.01,10.78-8.93,17.33-11.75c6.54-2.83,13.61-4.24,21.2-4.24
				c6.3,0,12.36,1.05,18.17,3.15c5.82,2.1,11.06,5.01,15.75,8.72c4.68,3.72,8.68,8.16,12,13.33c3.31,5.17,5.69,10.91,7.15,17.21
				v0.73c0,1.29-0.36,2.34-1.09,3.15c-0.73,0.81-1.66,1.21-2.79,1.21h-95.24c-0.16,1.13-0.28,2.26-0.36,3.39
				c-0.08,1.13-0.12,2.34-0.12,3.64c0,6.46,1.21,12.52,3.64,18.17c2.42,5.66,5.73,10.58,9.93,14.78c4.2,4.2,9.13,7.51,14.78,9.93
				c5.65,2.42,11.71,3.63,18.18,3.63c7.91,0,15.31-1.85,22.17-5.57c6.87-3.71,12.4-8.88,16.6-15.51c0.64-0.97,1.53-1.58,2.67-1.82
				c1.13-0.24,2.1-0.04,2.91,0.61c2.26,1.45,2.67,3.31,1.21,5.57c-5.17,7.75-11.75,13.81-19.75,18.17
				C518.82,183.98,510.21,186.16,501,186.16z M456.9,116.61h87.97c-3.23-9.37-8.81-16.96-16.72-22.78
				c-7.92-5.82-16.96-8.72-27.14-8.72c-5.17,0-10.06,0.81-14.66,2.42c-4.61,1.62-8.85,3.8-12.72,6.54
				c-3.88,2.75-7.23,6.06-10.06,9.94C460.73,107.88,458.51,112.09,456.9,116.61z"/>
		</g>
	</g>
</g>
</svg>
