<svg id="Layer_1" data-name="Layer 1" xmlns="http://www.w3.org/2000/svg" viewBox="0 0 520.61 637.49"><defs><style>.cls-1,.cls-2{fill:#fd5c63;}.cls-2{font-size:78.18px;font-family:Montserrat-SemiBold, Montserrat;font-weight:700;}.cls-3{letter-spacing:0em;}.cls-4{letter-spacing:-0.01em;}.cls-5{letter-spacing:0em;}.cls-6{letter-spacing:0em;}</style></defs><title>LOGO</title><path class="cls-1" d="M524.3,702.79c-68.29,0-132.14-26.65-180.44-74.95a254.69,254.69,0,0,1,0-360.89C392.16,218.65,456,192,524.3,192S656.44,218.65,704.74,267h0c48.31,48.31,75,112.15,75,180.44s-26.65,132.14-75,180.45S592.59,702.79,524.3,702.79Zm0-499.69A244.54,244.54,0,1,0,697,274.73h0C650.89,228.09,589.26,203.1,524.3,203.1Z" transform="translate(-264 -192)"/><path class="cls-1" d="M452.13,260.85a3.35,3.35,0,0,1,3.33,2.77l40,154.9L345,378c-1.11-.55-2.22-1.11-2.22-1.66a2.51,2.51,0,0,1,0-2.78c5.55-15,19.43-43.3,45-69.4A195.48,195.48,0,0,1,450.46,262c.56-1.11,1.11-1.11,1.67-1.11m0-11.11a28.94,28.94,0,0,0-6.11,1.11,203.48,203.48,0,0,0-66.07,45,216.67,216.67,0,0,0-47.75,73.29,14.56,14.56,0,0,0,10,19.43L501,431.29h1.67c3.89,0,7.22-3.88,6.11-7.77l-42.2-163.23a15.52,15.52,0,0,0-14.43-10.55Z" transform="translate(-264 -192)"/><path class="cls-1" d="M332.76,412.42h1.11l154.35,42.19L377.73,565.1a3.06,3.06,0,0,1-2.78,1.11,3.58,3.58,0,0,1-2.77-1.11,201.48,201.48,0,0,1-37.76-73.84,198.38,198.38,0,0,1-5.55-75.51,4.06,4.06,0,0,1,3.89-3.33m0-11.11a14.5,14.5,0,0,0-14.44,13.33c-2.22,17.21-2.77,46.63,6.11,79.95a215.48,215.48,0,0,0,40,77.73,15.43,15.43,0,0,0,11.11,5.55c3.88,0,7.22-1.67,10.55-4.44l116-116a6,6,0,0,0-2.78-10L336.64,403c-1.66-1.11-2.77-1.67-3.88-1.67Z" transform="translate(-264 -192)"/><path class="cls-1" d="M516.53,249.74a211.32,211.32,0,0,1,52.74,6.66c35.54,9.44,61.08,27.76,73.85,37.76,1.11.55,1.11,1.66,1.11,2.77a3.59,3.59,0,0,1-1.11,2.78L533.19,410.2,491,255.85a2.45,2.45,0,0,1,.56-2.78,7.59,7.59,0,0,1,2.22-1.66,151.4,151.4,0,0,1,22.76-1.67m0-11.1a153.42,153.42,0,0,0-24.43,1.66,14.69,14.69,0,0,0-12.21,18.32L524.3,421.3c.56,2.78,3.33,4.44,6.11,4.44a6.29,6.29,0,0,0,4.44-1.66l116-116a14.66,14.66,0,0,0-1.11-21.66,215.48,215.48,0,0,0-77.73-40,195.32,195.32,0,0,0-55.52-7.77Z" transform="translate(-264 -192)"/><path class="cls-1" d="M551.51,474l154.9,40a7.59,7.59,0,0,1,2.22,1.66,6.35,6.35,0,0,1,0,3.34c-7.22,16.1-20,40.53-42.75,62.73a198.79,198.79,0,0,1-69.4,45h-1.11A3.36,3.36,0,0,1,592,624L551.51,474m-7.22-12.77c-3.89,0-7.22,3.89-6.11,7.78l42.75,158.79a14.17,14.17,0,0,0,13.88,10.54,16,16,0,0,0,5-1.11,216.45,216.45,0,0,0,73.29-47.74,219.66,219.66,0,0,0,45-66.07,14.75,14.75,0,0,0-10-20l-163.23-42.2Z" transform="translate(-264 -192)"/><path class="cls-1" d="M514.31,481.82l42.2,154.34a2.45,2.45,0,0,1-.56,2.78c-.56.55-1.11,1.67-2.78,1.67-7.21,1.11-15,1.11-22.76,1.11a211.33,211.33,0,0,1-52.74-6.67c-35.54-9.44-61.08-27.76-73.85-37.75-1.11-.56-1.11-1.67-1.11-2.78a3.58,3.58,0,0,1,1.11-2.77L514.31,481.82m2.78-15.55a6.32,6.32,0,0,0-4.45,1.67l-116,116a14.66,14.66,0,0,0,1.11,21.66A208.62,208.62,0,0,0,531,652.82c9.43,0,17.76-.56,24.42-1.11,8.89-1.11,15-10,12.77-18.32L523.75,470.71c-1.67-2.77-3.89-4.44-6.66-4.44Z" transform="translate(-264 -192)"/><path class="cls-1" d="M672.54,325.8a3.59,3.59,0,0,1,2.78,1.11,200.49,200.49,0,0,1,43.3,149.91c0,1.67-2.22,2.78-3.33,2.78h-1.11L559.84,437.4,669.77,327.47a3,3,0,0,1,2.77-1.67m0-11.1c-3.88,0-7.21,1.67-10.55,4.44l-116,116a6,6,0,0,0,2.77,10l162.68,44.42a9.5,9.5,0,0,0,3.88.55,14.87,14.87,0,0,0,14.44-12.76,203,203,0,0,0-6.11-79.95,215.15,215.15,0,0,0-40-77.73,14.82,14.82,0,0,0-11.11-5Z" transform="translate(-264 -192)"/><path class="cls-1" d="M532.63,341.35h0a6.51,6.51,0,0,1-6.11-4.44v-.56c0-.55-5-28.87-7.21-42.75-1.67-12.77-1.11-20.54,3.33-25.54,2.22-2.77,6.1-4.44,10-5A12.54,12.54,0,0,1,543.18,267c5.55,5.55,4.44,16.1,3.33,26.1h0c-1.66,12.21-7.22,41.64-7.77,43.3v.56A6.5,6.5,0,0,1,532.63,341.35Z" transform="translate(-264 -192)"/><path class="cls-1" d="M617,597.3a7,7,0,0,1-3.33-.56c-7.22-2.22-11.66-11.66-15.54-21.09h0c-4.45-11.11-14.44-38.31-15-39.42v-.56c-.56-2.77.55-5.55,2.77-6.66s5.55-1.11,7.22,1.11l.55.55s17.77,22.21,26.1,33.32c7.77,10,10.55,17.21,9.44,23.32-.56,3.33-2.78,6.1-5.56,8.32A16.72,16.72,0,0,1,617,597.3Z" transform="translate(-264 -192)"/><path class="cls-1" d="M644.23,394.65l-2.78-3.89c-1.66-2.22-1.11-5,.56-7.21l.55-.56c.56-.55,15-13.32,22.21-19.43S677,355.23,682,355.79c2.78.55,5.55,1.66,7.22,4.44a9.87,9.87,0,0,1,1.66,8.33c-1.66,5.55-8.32,9.43-15,12.76h0c-7.77,3.89-26.09,11.66-26.65,12.22h-.55Z" transform="translate(-264 -192)"/><path class="cls-1" d="M459.9,612.85a10.36,10.36,0,0,1-4.44-1.12,11.35,11.35,0,0,1-7.22-7.21c-2.22-7.22,2.22-16.1,7.77-25,6.11-10.55,31.65-53.3,31.65-53.3l.56-1.11a6,6,0,0,1,7.21-1.66,5.65,5.65,0,0,1,3.33,6.66v1.11c0,.56-16.1,45.53-20,58.3-3.89,12.21-7.78,18.87-13.33,21.65C463.79,612.85,461.57,612.85,459.9,612.85Z" transform="translate(-264 -192)"/><path class="cls-1" d="M579.82,522.9a5.83,5.83,0,0,1-5-2.77l-2.78-5.56a5.34,5.34,0,0,1,9.44-5l2.78,5.55a4.91,4.91,0,0,1-2.23,7.22A3.35,3.35,0,0,1,579.82,522.9Z" transform="translate(-264 -192)"/><path class="cls-1" d="M612,415.19c-1.67,0-3.89-1.11-4.45-2.77-1.66-2.78-1.11-6.11,1.67-7.78l17.21-11.1c2.78-1.67,6.11-1.11,7.77,1.66s1.11,6.11-1.66,7.78l-17.21,11.1A4.08,4.08,0,0,1,612,415.19Z" transform="translate(-264 -192)"/><text class="cls-2" transform="translate(0 616.77)"><tspan class="cls-3">C</tspan><tspan x="56.45" y="0">ap’ </tspan><tspan class="cls-4" x="198.19" y="0">P</tspan><tspan class="cls-5" x="253.77" y="0">as </tspan><tspan class="cls-6" x="363.07" y="0">C</tspan><tspan x="419.52" y="0">ap</tspan></text></svg>